<?xml version="1.0" encoding="UTF-8"?>
<svg id="Layer_1" xmlns="http://www.w3.org/2000/svg" version="1.1" xmlns:xlink="http://www.w3.org/1999/xlink" viewBox="0 0 1792 549.9">
  <!-- Generator: Adobe Illustrator 29.5.1, SVG Export Plug-In . SVG Version: 2.1.0 Build 141)  -->
  <defs>
    <style>
      .st0 {
        fill: #74030b;
      }

      .st1 {
        fill: #e85d04;
      }

      .st2 {
        fill: #1a1a1a;
      }

      .st3 {
        fill: url(#linear-gradient);
      }
    </style>
    <linearGradient id="linear-gradient" x1="115.2" y1="454.2" x2="469.7" y2="99.7" gradientUnits="userSpaceOnUse">
      <stop offset=".3" stop-color="#74030b"/>
      <stop offset=".5" stop-color="#9e2408"/>
      <stop offset=".8" stop-color="#e85d04"/>
      <stop offset=".9" stop-color="#ec7004"/>
      <stop offset="1" stop-color="#f48c06"/>
    </linearGradient>
  </defs>
  <g>
    <path class="st2" d="M760.6,258.1v-87.5h36.6c7.1,0,12.9,1.2,17.5,3.6,4.6,2.4,8,5.6,10.2,9.6,2.2,4,3.4,8.6,3.4,13.8s-.9,7.8-2.7,11.2c-1.8,3.4-4.3,6.3-7.4,8.8,3.3,2.2,5.9,5,7.6,8.4,1.8,3.5,2.7,7.4,2.9,11.9l1,20.1h-15.9l-1.4-19.9c-.2-3.2-.8-5.8-1.8-7.8-1-2-2.6-3.5-4.7-4.5-2.1-1-5.1-1.4-8.8-1.4h-20.4v33.6h-16.2ZM776.9,211.4h19.4c5.4,0,9.4-1.2,11.9-3.8s3.8-5.8,3.8-10-1.2-7.7-3.7-10.1c-2.5-2.4-6.4-3.6-11.9-3.6h-19.4v27.5Z"/>
    <path class="st2" d="M875,259.6c-6.3,0-11.9-1.4-16.8-4.1-4.8-2.7-8.6-6.5-11.4-11.2-2.8-4.8-4.1-10.4-4.1-16.7s1.4-12.1,4.1-17.1c2.7-5,6.5-8.9,11.3-11.7,4.8-2.8,10.5-4.2,16.9-4.2s11.6,1.3,16.2,4c4.7,2.7,8.3,6.3,10.9,10.9,2.6,4.6,3.9,9.8,3.9,15.6v2.8c0,1,0,2-.2,3.1h-51.4v-10h35.2c-.2-4-1.8-7.2-4.5-9.6-2.8-2.4-6.1-3.6-10.1-3.6s-5.8.7-8.2,2c-2.5,1.3-4.5,3.3-5.9,5.9-1.5,2.6-2.2,6-2.2,10.1v3.5c0,3.5.7,6.5,2.1,9.1,1.4,2.6,3.3,4.6,5.8,5.9,2.4,1.4,5.2,2.1,8.2,2.1s5.8-.7,8-2.1c2.2-1.4,3.8-3.3,5-5.6h16.5c-1.2,3.9-3.1,7.5-5.8,10.7-2.7,3.2-6.1,5.7-10.1,7.6s-8.5,2.8-13.5,2.8Z"/>
    <path class="st2" d="M944.4,259.6c-8.2,0-14.9-1.9-20.2-5.8-5.3-3.8-8.3-9-8.9-15.4h16.6c.6,2.6,2.1,4.7,4.4,6.2,2.4,1.6,5.3,2.4,8.7,2.4s6.3-.7,8.2-2c1.9-1.3,2.8-3,2.8-4.9s-.7-2.8-2-3.8c-1.3-.9-3.7-1.6-7.1-2-1.2-.2-2.9-.4-4.9-.8-2-.3-3.6-.6-4.9-.9-3.4-.7-6.5-1.8-9.4-3.2-2.8-1.5-5.1-3.5-6.8-6-1.7-2.5-2.6-5.6-2.6-9.4,0-5.5,2.1-10.1,6.2-13.9,4.1-3.8,10.1-5.7,18.1-5.7s14.2,1.8,18.9,5.2c4.7,3.5,7.3,8.4,7.9,14.8h-15.8c-.2-2.5-1.4-4.4-3.6-5.6s-4.6-1.9-7.3-1.9-5.8.6-7.5,1.8c-1.8,1.2-2.6,2.7-2.6,4.4,0,3,2.8,5,8.2,6,.8,0,1.9.2,3.2.4,1.3.2,2.6.4,4.1.6,1.4.2,2.5.4,3.4.6,2.4.3,4.8.9,7.1,1.6,2.3.8,4.4,1.8,6.3,3.1,1.9,1.3,3.4,3,4.5,5.2,1.1,2.2,1.7,4.8,1.7,8s-1,7.7-3.1,10.8c-2.1,3.1-5.1,5.6-9.1,7.3-4,1.8-8.8,2.6-14.6,2.6Z"/>
    <path class="st2" d="M987.8,258.1v-62h16.2v62h-16.2ZM988.1,185.9v-15.8h15.8v15.8h-15.8Z"/>
    <path class="st2" d="M1021.8,258.1v-90h16.2v90h-16.2Z"/>
    <path class="st2" d="M1055.8,258.1v-62h16.2v62h-16.2ZM1056.1,185.9v-15.8h15.8v15.8h-15.8Z"/>
    <path class="st2" d="M1119.8,259.6c-6.3,0-11.9-1.4-16.8-4.1-4.8-2.7-8.6-6.5-11.4-11.2-2.8-4.8-4.1-10.4-4.1-16.7s1.4-12.1,4.1-17.1c2.7-5,6.5-8.9,11.3-11.7,4.8-2.8,10.5-4.2,16.9-4.2s11.6,1.3,16.2,4c4.7,2.7,8.3,6.3,10.9,10.9,2.6,4.6,3.9,9.8,3.9,15.6v2.8c0,1,0,2-.2,3.1h-51.4v-10h35.2c-.2-4-1.8-7.2-4.5-9.6-2.8-2.4-6.1-3.6-10.1-3.6s-5.8.7-8.2,2c-2.5,1.3-4.5,3.3-5.9,5.9-1.5,2.6-2.2,6-2.2,10.1v3.5c0,3.5.7,6.5,2.1,9.1,1.4,2.6,3.3,4.6,5.8,5.9,2.4,1.4,5.2,2.1,8.2,2.1s5.8-.7,8-2.1c2.2-1.4,3.8-3.3,5-5.6h16.5c-1.2,3.9-3.1,7.5-5.8,10.7-2.7,3.2-6.1,5.7-10.1,7.6s-8.5,2.8-13.5,2.8Z"/>
    <path class="st2" d="M1166.9,258.1v-62h16.2v9.4c2-3.3,4.8-6,8.2-7.9,3.5-2,7.6-2.9,12.2-2.9,7.8,0,13.7,2.4,17.9,7.3,4.2,4.9,6.2,12,6.2,21.3v34.9h-16.2v-33.4c0-5.3-1.1-9.4-3.2-12.2-2.1-2.8-5.5-4.2-10.1-4.2s-8,1.6-10.9,4.7c-2.8,3.1-4.2,7.5-4.2,13.1v32h-16.2Z"/>
    <path class="st2" d="M1268.9,258.1c-4.2,0-7.7-.5-10.6-1.4-2.9-1-5-2.8-6.4-5.6-1.4-2.8-2.1-6.8-2.1-12.1v-29.2h-10.6v-13.6h10.6v-16.6h16.2v16.6h15.6v13.6h-15.6v27.2c0,2.1.2,3.6.6,4.7.4,1,1.2,1.7,2.4,2.1,1.2.3,2.8.5,4.8.5h7.5v13.9h-12.4Z"/>
    <path class="st1" d="M1337.3,258.1l31.9-87.5h18.4l32,87.5h-17.1l-27.4-78.5h6.6l-27.4,78.5h-17ZM1352,238l4.4-12.8h44l4.4,12.8h-52.8Z"/>
    <path class="st1" d="M1434.5,258.1v-87.5h16.2v87.5h-16.2Z"/>
    <path class="st2" d="M1519.1,221.1v-13.5h56.8v13.5h-56.8ZM1540.6,243.6v-58.5h13.8v58.5h-13.8Z"/>
    <path class="st2" d="M635.2,379.6c-9.5,0-17.6-1.9-24.3-5.6-6.7-3.7-11.8-8.9-15.4-15.6-3.5-6.7-5.3-14.5-5.3-23.4s1.8-17,5.3-23.9c3.5-6.9,8.6-12.3,15.1-16.2,6.5-3.9,14.3-5.8,23.3-5.8s18.9,2.5,25.6,7.4c6.8,4.9,11.1,11.7,13.1,20.4h-18.2c-1.3-4-3.7-7.1-7.1-9.4-3.4-2.2-7.9-3.4-13.4-3.4s-10.6,1.2-14.7,3.8c-4,2.5-7.1,6.1-9.3,10.7-2.2,4.6-3.2,10.1-3.2,16.6s1.1,11.7,3.4,16.2c2.2,4.5,5.5,7.9,9.7,10.3,4.2,2.4,9.4,3.6,15.4,3.6s13-2,17.2-6.1c4.2-4.1,6.4-9.8,6.4-17h-24.4v-12.2h40.8v7c0,9.4-1.7,17.3-5.2,23.6-3.5,6.3-8.2,11.1-14.2,14.3-6,3.2-12.9,4.8-20.6,4.8Z"/>
    <path class="st2" d="M690.8,378.1v-62h16.2v9.5c1.6-3.2,3.6-5.6,6.1-7.4,2.5-1.8,5.4-2.7,8.6-2.7h7.9v14.5h-9.5c-3,0-5.5.8-7.4,2.4-2,1.6-3.4,4-4.3,7.1-.9,3.2-1.4,7.1-1.4,11.8v26.9h-16.2Z"/>
    <path class="st2" d="M770.6,379.6c-6.2,0-11.9-1.4-16.9-4.1s-9-6.6-11.9-11.5c-2.9-4.9-4.4-10.5-4.4-16.9s1.5-12.1,4.4-16.9c2.9-4.9,6.9-8.7,11.9-11.4,5-2.8,10.6-4.1,16.8-4.1s11.9,1.4,16.9,4.1,9,6.6,11.9,11.4c2.9,4.9,4.4,10.5,4.4,16.9s-1.5,12-4.4,16.9c-2.9,4.9-6.9,8.8-11.9,11.5s-10.6,4.1-16.9,4.1ZM770.6,365.6c3,0,5.8-.7,8.2-2.1s4.5-3.4,5.9-6.2c1.5-2.8,2.2-6.2,2.2-10.2s-.8-7.5-2.2-10.2-3.5-4.8-5.9-6.2c-2.5-1.4-5.2-2.1-8.2-2.1s-5.6.7-8.1,2.1-4.5,3.4-6,6.2-2.2,6.2-2.2,10.2.7,7.5,2.2,10.2c1.5,2.8,3.4,4.8,5.9,6.2s5.2,2.1,8.2,2.1Z"/>
    <path class="st2" d="M841,379.6c-7.1,0-12.7-2.4-16.8-7.3s-6.2-12-6.2-21.3v-34.9h16.2v33.4c0,5.3,1,9.4,3.1,12.2,2,2.8,5,4.2,8.9,4.2s7.8-1.6,10.2-4.7c2.4-3.1,3.6-7.5,3.6-13.1v-32h16.2v62h-16.2v-9.1c-1.8,3.2-4.3,5.8-7.5,7.8-3.2,1.9-7,2.9-11.6,2.9Z"/>
    <path class="st2" d="M894,378.1v-62h16.2v9.4c2-3.3,4.8-6,8.2-7.9,3.5-2,7.6-2.9,12.2-2.9,7.8,0,13.7,2.4,17.9,7.3,4.2,4.9,6.2,12,6.2,21.3v34.9h-16.2v-33.4c0-5.3-1.1-9.4-3.2-12.2-2.1-2.8-5.5-4.2-10.1-4.2s-8,1.6-10.9,4.7c-2.8,3.1-4.2,7.5-4.2,13.1v32h-16.2Z"/>
    <path class="st2" d="M1000.7,379.6c-5.8,0-11.1-1.4-15.7-4.2s-8.3-6.7-10.9-11.7c-2.7-5-4-10.5-4-16.7s1.3-11.8,4-16.7c2.7-4.9,6.3-8.7,10.9-11.5,4.6-2.8,9.9-4.2,15.7-4.2s8.7.9,12.2,2.6c3.5,1.8,6.2,4.2,8.3,7.2v-36.4h16.2v90h-16.2v-8.9c-1.9,2.8-4.5,5.2-7.8,7.2-3.3,2.1-7.5,3.1-12.7,3.1ZM1004.2,365.5c3.4,0,6.4-.8,9.1-2.4,2.6-1.6,4.7-3.8,6.1-6.6,1.5-2.8,2.2-5.9,2.2-9.4s-.7-6.8-2.2-9.5c-1.5-2.8-3.5-4.9-6.1-6.5-2.6-1.6-5.6-2.4-9.1-2.4s-6.3.8-9,2.4c-2.7,1.6-4.8,3.7-6.2,6.4-1.5,2.7-2.2,5.9-2.2,9.4s.8,6.8,2.2,9.6c1.5,2.8,3.6,5,6.2,6.6,2.7,1.6,5.7,2.4,9,2.4Z"/>
    <path class="st2" d="M1085.3,379.6c-6.3,0-11.9-1.4-16.8-4.1-4.8-2.7-8.6-6.5-11.4-11.2-2.8-4.8-4.1-10.4-4.1-16.7s1.4-12.1,4.1-17.1c2.7-5,6.5-8.9,11.3-11.7,4.8-2.8,10.5-4.2,16.9-4.2s11.6,1.3,16.2,4c4.7,2.7,8.3,6.3,10.9,10.9,2.6,4.6,3.9,9.8,3.9,15.6v2.8c0,1,0,2-.2,3.1h-51.4v-10h35.2c-.2-4-1.8-7.2-4.5-9.6-2.8-2.4-6.1-3.6-10.1-3.6s-5.8.7-8.2,2c-2.5,1.3-4.5,3.3-5.9,5.9-1.5,2.6-2.2,6-2.2,10.1v3.5c0,3.5.7,6.5,2.1,9.1,1.4,2.6,3.3,4.6,5.8,5.9,2.4,1.4,5.2,2.1,8.2,2.1s5.8-.7,8-2.1c2.2-1.4,3.8-3.3,5-5.6h16.5c-1.2,3.9-3.1,7.5-5.8,10.7-2.7,3.2-6.1,5.7-10.1,7.6s-8.5,2.8-13.5,2.8Z"/>
    <path class="st2" d="M1160.6,379.6c-5.8,0-11.1-1.4-15.7-4.2s-8.3-6.7-10.9-11.7c-2.7-5-4-10.5-4-16.7s1.3-11.8,4-16.7c2.7-4.9,6.3-8.7,10.9-11.5,4.6-2.8,9.9-4.2,15.7-4.2s8.7.9,12.2,2.6c3.5,1.8,6.2,4.2,8.3,7.2v-36.4h16.2v90h-16.2v-8.9c-1.9,2.8-4.5,5.2-7.8,7.2-3.3,2.1-7.5,3.1-12.7,3.1ZM1164.1,365.5c3.4,0,6.4-.8,9.1-2.4,2.6-1.6,4.7-3.8,6.1-6.6,1.5-2.8,2.2-5.9,2.2-9.4s-.7-6.8-2.2-9.5c-1.5-2.8-3.5-4.9-6.1-6.5-2.6-1.6-5.6-2.4-9.1-2.4s-6.3.8-9,2.4c-2.7,1.6-4.8,3.7-6.2,6.4-1.5,2.7-2.2,5.9-2.2,9.4s.8,6.8,2.2,9.6c1.5,2.8,3.6,5,6.2,6.6,2.7,1.6,5.7,2.4,9,2.4Z"/>
    <path class="st2" d="M1294.6,379.6c-4.1,0-8.1-.6-12.1-1.7s-7.7-2.9-11-5.4c-3.3-2.5-6.1-5.6-8.3-9.5-2.2-3.9-3.5-8.5-3.9-13.9h15c.7,4.2,2.1,7.6,4.2,10,2.1,2.4,4.7,4.1,7.6,5.1,3,1,5.9,1.4,8.8,1.4s6.1-.5,8.7-1.5c2.5-1,4.5-2.4,6-4.3,1.5-1.9,2.2-4.1,2.2-6.6s-.7-4.9-2.1-6.9c-1.4-2-4.5-3.5-9.1-4.3l-14.9-2.8c-7.2-1.3-12.8-4.2-16.8-8.6-4-4.4-6.1-9.6-6.1-15.6s1.4-10.2,4.1-14c2.8-3.8,6.5-6.8,11.1-8.9,4.7-2.1,9.8-3.1,15.4-3.1s11.1,1,15.8,3c4.7,2,8.5,5.1,11.4,9.2,2.9,4.1,4.7,9.4,5.2,15.9h-15.2c-.5-3.8-1.6-6.6-3.3-8.7-1.7-2-3.8-3.5-6.1-4.3-2.4-.8-4.8-1.2-7.3-1.2s-4.8.4-7.2,1.1-4.6,2-6.2,3.7c-1.7,1.7-2.5,4-2.5,6.9s.9,4.7,2.8,6.7c1.9,2,4.9,3.3,9.1,4.1l13.8,2.5c7.3,1.3,13.1,3.9,17.3,7.8,4.2,3.9,6.3,9.5,6.3,16.9s-.9,8.3-2.8,11.6c-1.9,3.3-4.4,6.1-7.4,8.4-3.1,2.3-6.5,4-10.4,5.2-3.8,1.2-7.8,1.8-11.8,1.8Z"/>
    <path class="st2" d="M1372.6,379.6c-6.3,0-11.9-1.4-16.8-4.1-4.8-2.7-8.6-6.5-11.4-11.2-2.8-4.8-4.1-10.4-4.1-16.7s1.4-12.1,4.1-17.1c2.7-5,6.5-8.9,11.3-11.7,4.8-2.8,10.5-4.2,16.9-4.2s11.6,1.3,16.2,4c4.7,2.7,8.3,6.3,10.9,10.9,2.6,4.6,3.9,9.8,3.9,15.6v2.8c0,1,0,2-.2,3.1h-51.4v-10h35.2c-.2-4-1.8-7.2-4.5-9.6-2.8-2.4-6.1-3.6-10.1-3.6s-5.8.7-8.2,2c-2.5,1.3-4.5,3.3-5.9,5.9-1.5,2.6-2.2,6-2.2,10.1v3.5c0,3.5.7,6.5,2.1,9.1,1.4,2.6,3.3,4.6,5.8,5.9,2.4,1.4,5.2,2.1,8.2,2.1s5.8-.7,8-2.1c2.2-1.4,3.8-3.3,5-5.6h16.5c-1.2,3.9-3.1,7.5-5.8,10.7-2.7,3.2-6.1,5.7-10.1,7.6s-8.5,2.8-13.5,2.8Z"/>
    <path class="st2" d="M1419.7,378.1v-62h16.2v9.4c2-3.3,4.8-6,8.2-7.9,3.5-2,7.6-2.9,12.2-2.9,7.8,0,13.7,2.4,17.9,7.3,4.2,4.9,6.2,12,6.2,21.3v34.9h-16.2v-33.4c0-5.3-1.1-9.4-3.2-12.2-2.1-2.8-5.5-4.2-10.1-4.2s-8,1.6-10.9,4.7c-2.8,3.1-4.2,7.5-4.2,13.1v32h-16.2Z"/>
    <path class="st2" d="M1523.7,379.6c-8.2,0-14.9-1.9-20.2-5.8-5.3-3.8-8.3-9-8.9-15.4h16.6c.6,2.6,2.1,4.7,4.4,6.2,2.4,1.6,5.3,2.4,8.7,2.4s6.3-.7,8.2-2c1.9-1.3,2.8-3,2.8-4.9s-.7-2.8-2-3.8c-1.3-.9-3.7-1.6-7.1-2-1.2-.2-2.9-.4-4.9-.8-2-.3-3.6-.6-4.9-.9-3.4-.7-6.5-1.8-9.4-3.2-2.8-1.5-5.1-3.5-6.8-6-1.7-2.5-2.6-5.6-2.6-9.4,0-5.5,2.1-10.1,6.2-13.9,4.1-3.8,10.1-5.7,18.1-5.7s14.2,1.8,18.9,5.2c4.7,3.5,7.3,8.4,7.9,14.8h-15.8c-.2-2.5-1.4-4.4-3.6-5.6s-4.6-1.9-7.3-1.9-5.8.6-7.5,1.8c-1.8,1.2-2.6,2.7-2.6,4.4,0,3,2.8,5,8.2,6,.8,0,1.9.2,3.2.4,1.3.2,2.6.4,4.1.6,1.4.2,2.5.4,3.4.6,2.4.3,4.8.9,7.1,1.6,2.3.8,4.4,1.8,6.3,3.1,1.9,1.3,3.4,3,4.5,5.2,1.1,2.2,1.7,4.8,1.7,8s-1,7.7-3.1,10.8c-2.1,3.1-5.1,5.6-9.1,7.3-4,1.8-8.8,2.6-14.6,2.6Z"/>
    <path class="st2" d="M1567.1,378.1v-62h16.2v62h-16.2ZM1567.4,305.9v-15.8h15.8v15.8h-15.8Z"/>
    <path class="st2" d="M1601.1,378.1v-62h16.2v9.4c2-3.3,4.8-6,8.2-7.9,3.5-2,7.6-2.9,12.2-2.9,7.8,0,13.7,2.4,17.9,7.3,4.2,4.9,6.2,12,6.2,21.3v34.9h-16.2v-33.4c0-5.3-1.1-9.4-3.2-12.2-2.1-2.8-5.5-4.2-10.1-4.2s-8,1.6-10.9,4.7c-2.8,3.1-4.2,7.5-4.2,13.1v32h-16.2Z"/>
    <path class="st2" d="M1713.7,407.1c-5.3,0-10.4-.9-15.2-2.6-4.8-1.8-8.9-4.5-12.2-8.2-3.3-3.7-5.3-8.5-6-14.3h16.1c.8,3.4,2.7,6.1,5.8,8.1s6.8,3,11.1,3,6.1-.7,8.7-2c2.6-1.3,4.7-3.3,6.3-5.9,1.6-2.6,2.4-6,2.4-10.1v-7.8c-1.2,2-2.9,3.8-4.9,5.5-2,1.7-4.4,3-7.1,4.1-2.7,1-5.8,1.6-9.3,1.6-5.9,0-11.2-1.4-15.9-4.2-4.7-2.8-8.4-6.7-11.1-11.5-2.7-4.8-4.1-10.2-4.1-16.2s1.4-11.5,4.1-16.3c2.7-4.8,6.4-8.6,11.1-11.4,4.7-2.8,10-4.2,15.9-4.2s9,1,12.6,2.9c3.7,2,6.5,4.4,8.6,7.2v-8.6h16.2v58.1c0,7.2-1.5,13.2-4.6,18.1-3,4.9-7.1,8.6-12.1,11.1-5,2.5-10.6,3.8-16.6,3.8ZM1712.7,364.4c3.6,0,6.7-.8,9.3-2.4,2.6-1.6,4.7-3.7,6.2-6.4,1.5-2.7,2.2-5.7,2.2-9s-.8-6.6-2.2-9.2c-1.5-2.7-3.6-4.8-6.2-6.3-2.6-1.5-5.7-2.3-9.3-2.3s-6.6.8-9.2,2.3c-2.7,1.5-4.8,3.6-6.3,6.3-1.5,2.7-2.3,5.7-2.3,9.1s.8,6.4,2.3,9.1c1.5,2.7,3.6,4.9,6.3,6.4,2.7,1.6,5.8,2.4,9.2,2.4Z"/>
  </g>
  <g>
    <path class="st0" d="M122.3,384.2H52c-25.2-37.8-39.9-83.3-39.9-132.1s6.8-64.8,19-93.5l53.9,93.4h0c0,.1.8,1.5.8,1.5,1.8,47.3,14.8,91.8,36.6,130.8Z"/>
    <path class="st0" d="M187,22c-65.7,18.2-120,63.7-149.9,123.6l48.7,84.4c3.6-83.1,42.1-157.2,101.2-208Z"/>
    <path class="st3" d="M509.8,285.4c-11-42-41.3-52.9-60-79.1-28.3-39.6-8.7-92.6,39-76.3,18.3,9.1-5.9-21.1-13.9-21.8-54.2-4.2-19.3-11.4-56.1-20.7-15.2-3.8-28.1-4-44.3-6.2-5.6-.8-6-1.9-7.9-3.4-3-3-3.2-4.9-3.3-4.7-.3.6.9,6.1,4,9.2,2.7,2.6,6.8,3.5,7.5,3.9-14.4,4.8-24.3-3.7-32-15.2,2.6,22.2,19.7,42.2,44.6,32.5-30.2,33.1-30.9,60.6-26.2,83.1,6.1,28.9,25.7,52.1,52.5,96.4,23.4,38.7-6.9,108-44.8,125,38.5-53.9,21.9-94.4-13-128.7-23.7-23.3-64.5-36.4-79.6-72.6-30.3-72.9,18.3-152.9,80.3-194.1-113.9,38.9-184.6,188.8-82,278.2,22.8,21.1,67.5,45.9,62.4,81.2-14.5-48-70.4-62.7-103.1-95.6C153.9,187,222.3,47.4,318.4,0c-65.2,18.5-132.1,71.6-145.3,142.1-7.1-20.1-5.4-50.1-1.4-72.5,1.7-9.7,10.7-20.5,4.8-15.2-39.6,35.5-36.7,116-19,161.4-19.4-15.9-31.4-44.5-37.6-69.1-7.2,60.7,21.4,122.1,74.9,154.9-23.1-9.6-37-18.8-44.7-24-12.8-8.8-21.9-19.9-20.6-16.3,16.6,45.9,68,63.6,113.7,77.1,64.6,26.8,90.5,101-9.2,97.3-24.1-.9-51.7-2.8-88.5-33.7,13.6,18.7,11.5,14.5,28.7,31,28.9,27.6,60.6,28.7,70.1,30.2-2.4.5-4.7,1.1-7.1,1.5-19.7,3.7-44-7.2-54-12.6-34.1-21.6-39.9-31.5-55-56.2H60.3c20.2,26.8,46,49.2,75.5,65.4,1.9,1.2,4,2.6,6.1,3.9,66.6,42.8,191.8,50.9,243.3,31.3,13.6-7.5,22-9.9,35.3-18,18.4-11.3,34.1-22.9,46.1-38.3,32.1-41.2,60.8-87.9,43.2-154.9Z"/>
    <rect class="st1" x="223.1" y="320.8" width="18.4" height="18.4"/>
    <rect class="st1" x="364.1" y="309.8" width="18.4" height="18.4"/>
    <rect class="st1" x="278.4" y="454.7" width="18.4" height="18.4"/>
    <rect class="st1" x="266" y="422" width="18.4" height="18.4"/>
    <rect class="st1" x="78.4" y="173" width="18.4" height="18.4"/>
    <rect class="st0" x="206.1" y="473.7" width="18.4" height="18.4"/>
    <rect class="st1" x="52.1" y="339.2" width="18.4" height="18.4"/>
    <rect class="st1" x="396.6" y="471.5" width="18.4" height="18.4"/>
    <rect class="st1" x="227.9" y="453" width="18.4" height="18.4"/>
    <rect class="st1" x="122.3" y="227.6" width="18.4" height="18.4"/>
    <rect class="st1" x="472.5" y="449.7" width="18.4" height="18.4"/>
    <rect class="st1" x="243" y="494.7" width="18.4" height="18.4"/>
    <rect class="st1" x="396.5" y="368.2" width="18.4" height="18.4"/>
    <rect class="st1" x="363.1" y="408.1" width="18.4" height="18.4"/>
    <rect class="st1" x="411.6" y="462.1" width="18.4" height="18.4"/>
    <rect class="st1" x="430.5" y="449.2" width="18.4" height="18.4"/>
    <rect class="st1" x="12.1" y="299" width="18.4" height="18.4"/>
    <rect class="st1" x="154.4" y="319" width="18.4" height="18.4"/>
    <rect class="st1" x="430.4" y="281.8" width="18.4" height="18.4"/>
    <rect class="st1" x="494.1" y="381.4" width="18.4" height="18.4"/>
    <rect class="st1" x="287.6" y="363.4" width="18.4" height="18.4"/>
    <path class="st1" d="M259.9,549.9h-.9c1.9-8.1,8.5-13.3,13-19.7,17.3-24.5,27.9-38.7,53.4-55.7,55.3-36.9,136.8-42.8,132.9-128.1-.6-14-4.4-23.4-6.8-36-.9-4.8,3.8-.4,5.2,1.2,11.7,13.3,18,36.5,22.8,53.3,6.3,22.2-3.6,63.4-14.6,83.5-17.1,31-53.9,53.5-88.3,59.7-25.2,4.5-60.3,3.6-82.6,15.4-13.4,7.1-21.9,18.2-34.2,26.3Z"/>
    <path class="st1" d="M404.5,416.9l19.2-26c11.5-20.1,19.5-41.9,21.3-65.2,2.3,9.5,1.3,20.4.2,30.1-3.2,25.5-14,52.7-40.6,61Z"/>
    <g>
      <path class="st1" d="M328.3,138.8c.5.5-2.4,11-2.6,12.6-2,19.6,7.2,48.1,19.9,63.1,8.6,10.2,12.8,17.2,20.4,27.5,14.9,20.3,39.2,52.1,41,77.9,1,14.3-2.5,30.5-8.8,43.4.4-13.7,3.5-27,1.9-40.8-1.8-15.6-15.9-37.1-27.1-48.2-37.8-37.3-97.5-62.8-53.2-127.2.8-1.1,7.4-9.5,8.5-8.4Z"/>
      <path class="st1" d="M304.4,102c-1.6,6.3-1.5,14.2-.8,20.7.7,6.8,3,11.7,2.5,18.9-.6,9.1-5.9,16.7-8.5,25.3-5.5,18.3-5.2,37.9,2.1,55.6l-.6.2c-.8-.1-3.2-2.3-3.8-3-9-10.1-17.8-49.7-16.9-63.1.8-12.1,14.8-39.6,21.8-50.1s2.3-3.8,4.3-4.4Z"/>
    </g>
    <g>
      <path class="st1" d="M519.3,269.6c-1.1.1-1.1-.6-1.5-1.3-7.1-12.4-11.7-21.4-21.6-32.2-13.6-14.9-27.5-22-30.1-44-.7-5.9-.7-12.2-.7-18.2,2.7,4.3,4.1,9.5,7.1,13.7s13.4,15,16.7,17.6,4,2.6,4.2,2.5c.7-.3,0-10.4,0-11.8-1.6-16.9-4.6-40.8-22.3-48.8-2-.9-13-3.2-13.1-3.9-.8-4.7,17.7-1.6,20.2-.9,14.6,4.1,20.6,9.2,27.5,22.4,14.5,27.9,6.9,58.2,10.5,88.1l2.9,12.5.3,4.3Z"/>
      <path class="st1" d="M450.6,150l.4,1.3c6.5,4.9,16.6,1.7,23.1,5.3,7.5,4.2,13.1,22.8,12.7,31-1.3-2.2-2.1-4.9-3.8-6.8-7-7.9-14-10.5-22.5-15.2-7.4-4.1-7.9-7.8-10.7-15.3l.8-.3Z"/>
    </g>
    <path class="st1" d="M146.1,323.4c-18.6-.5-33.6-14.8-50.1-20.3-2.2-.8-4.1-1.4-6.3-1.6s-2.3-1.4-2-2.7c4.8-17.5,11-38.6,8.6-56.4s-2.9-9.3-3.4-13.3c-.5-4.2,4,4.5,4.5,5.8,5.4,12.4,6.6,26.7,11,39s18.2,37.2,26.9,43.3c3.4,2.4,7.8,3.1,10.7,6.2Z"/>
    <path class="st1" d="M108,243.4c-.7.4-.8-1.1-.9-1.4-2-8-4.1-15.7-6.2-23.7-3.7-13.6,1-25.6,9.7-36.1-1.9,6.5-4,12.9-4.3,19.7-.5,9.1,3.1,16.1,3.5,24.7.1,2.5-.4,15.9-1.8,16.7Z"/>
    <path class="st1" d="M276.8,384.8s0,0,0,0c-.2-.4-.4-.8-.6-1.3-.2-.2-.4-.4-.7-.7-.7-1.1-1.6-2.1-2.6-3.1-2.1-2.5-4.4-5.4-5.3-6.3-13.4-12.8-36.9-23.4-55.3-24.9-17-1.4-37.7,4.4-54.1-.6-11.9-3.7-23-12.2-32.7-19.8,7.6,26.3,29.1,42.9,56.8,43.5-6.5,1.1-17.1,3.6-23.5,2.1-17.9-4.2-37.2-20.1-47.2-35.3-15-22.7-10.4-44.2-28.6-67.1-16.6-20.9-29.5-24.7-54.6-29.9-9-1.9-15.2-2.5-27.3-.5l-1.2.6c4,.4,5.3,1.2,7.8,1.9,22.8,6.7,41.7,30,52.1,50.4,7.4,14.5,9.4,28.4,20.1,42.5,17.7,23.2,30.8,30.6,55,47.5,8.2,5.7,3.7,3.9,32.3,21,13.7,7,35.2,17.1,66.4,17.1s45-15.1,45-30.3-.6-4.7-1.8-6.9Z"/>
  </g>
</svg>