<?xml version="1.0" encoding="UTF-8"?>
<svg id="Layer_1" xmlns="http://www.w3.org/2000/svg" version="1.1" xmlns:xlink="http://www.w3.org/1999/xlink" viewBox="0 0 1253.4 1327.5">
  <defs>
    <style>
      .st0 { fill: #74030b; }
      .st1 { fill: #e85d04; }
      .st2 { fill: url(#linear-gradient); }
    </style>
    <linearGradient id="linear-gradient" x1="278.2" y1="1096.3" x2="1133.8" y2="240.7" gradientUnits="userSpaceOnUse">
      <stop offset=".3" stop-color="#74030b"/>
      <stop offset=".5" stop-color="#9e2408"/>
      <stop offset=".8" stop-color="#e85d04"/>
      <stop offset=".9" stop-color="#ec7004"/>
      <stop offset="1" stop-color="#f48c06"/>
    </linearGradient>
  </defs>
  <path class="st0" d="M295.3,927.5H125.4c-60.8-91.3-96.2-201-96.2-318.9s16.4-156.4,45.9-225.8l130.2,225.5-.2.3,1.9,3.3c4.3,114.3,35.8,221.6,88.3,315.6Z"/>
  <path class="st0" d="M451.4,53.1C292.9,97,161.8,207,89.6,351.5l117.6,203.7c8.8-200.6,101.7-379.4,244.2-502.1Z"/>
  <path class="st2" d="M1230.6,689c-26.5-101.3-99.6-127.7-144.9-191-68.3-95.6-21.1-223.4,94.2-184.2,44.3,22-14.3-50.9-33.7-52.6-130.8-10.1-46.5-27.6-135.5-49.9-36.6-9.2-67.7-9.6-107-14.9-13.6-1.8-14.5-4.5-19-8.1-7.2-7.2-7.7-11.8-8-11.4-.8,1.4,2.1,14.8,9.8,22.3,6.5,6.3,16.5,8.3,18.2,9.4-34.8,11.6-58.6-9-77.2-36.7,6.3,53.6,47.6,102,107.7,78.4-72.8,79.8-74.5,146.4-63.1,200.6,14.6,69.7,62.1,125.7,126.8,232.7,56.5,93.5-16.6,260.7-108.1,301.7,93-130.2,52.9-227.8-31.3-310.7-57.1-56.2-155.7-87.8-192.1-175.3-73.1-176.1,44.2-369.1,193.7-468.5-275,93.8-445.6,455.8-198,671.6,55.2,51,162.8,110.8,150.7,195.9-35-115.9-169.9-151.4-248.9-230.7C371.4,451.3,536.6,114.3,768.4,0c-157.4,44.7-318.8,172.9-350.8,342.9-17-48.4-13-120.9-3.3-174.9,4.2-23.5,25.8-49.4,11.6-36.7-95.6,85.6-88.7,280.1-45.8,389.6-46.7-38.5-75.7-107.4-90.8-166.8-17.3,146.4,51.7,294.7,180.7,374-55.7-23.3-89.3-45.3-107.8-58-30.9-21.2-52.9-48.1-49.7-39.3,40.1,110.8,164.1,153.6,274.5,186.1,156,64.8,218.3,243.9-22.2,235-58.1-2.2-124.9-6.7-213.6-81.4,32.7,45.2,27.7,35.1,69.3,74.9,69.8,66.7,146.4,69.3,169.3,73-5.7,1.3-11.4,2.5-17.1,3.6-47.5,9-106.3-17.5-130.3-30.5-82.2-52.1-96.2-76.1-132.7-135.6h-164.4c48.8,64.6,111,118.6,182.4,158,4.7,3,9.6,6.2,14.7,9.5,160.6,103.2,463,123,587.3,75.5,32.8-18.1,53.1-23.8,85.1-43.5,44.5-27.2,82.4-55.2,111.4-92.3,77.6-99.4,146.7-212.2,104.4-373.9Z"/>
</svg>
