<?xml version="1.0" encoding="UTF-8"?>
<svg id="Layer_1" xmlns="http://www.w3.org/2000/svg" version="1.1" xmlns:xlink="http://www.w3.org/1999/xlink" viewBox="0 0 1253.4 1327.5">
  <!-- Generator: Adobe Illustrator 29.5.1, SVG Export Plug-In . SVG Version: 2.1.0 Build 141)  -->
  <defs>
    <style>
      .st0 {
        fill: #74030b;
      }

      .st1 {
        fill: #e85d04;
      }

      .st2 {
        fill: url(#linear-gradient);
      }
    </style>
    <linearGradient id="linear-gradient" x1="278.2" y1="1096.3" x2="1133.8" y2="240.7" gradientUnits="userSpaceOnUse">
      <stop offset=".3" stop-color="#74030b"/>
      <stop offset=".5" stop-color="#9e2408"/>
      <stop offset=".8" stop-color="#e85d04"/>
      <stop offset=".9" stop-color="#ec7004"/>
      <stop offset="1" stop-color="#f48c06"/>
    </linearGradient>
  </defs>
  <path class="st0" d="M295.3,927.5H125.4c-60.8-91.3-96.2-201-96.2-318.9s16.4-156.4,45.9-225.8l130.2,225.5-.2.3,1.9,3.3c4.3,114.3,35.8,221.6,88.3,315.6Z"/>
  <path class="st0" d="M451.4,53.1C292.9,97,161.8,207,89.6,351.5l117.6,203.7c8.8-200.6,101.7-379.4,244.2-502.1Z"/>
  <path class="st2" d="M1230.6,689c-26.5-101.3-99.6-127.7-144.9-191-68.3-95.6-21.1-223.4,94.2-184.2,44.3,22-14.3-50.9-33.7-52.6-130.8-10.1-46.5-27.6-135.5-49.9-36.6-9.2-67.7-9.6-107-14.9-13.6-1.8-14.5-4.5-19-8.1-7.2-7.2-7.7-11.8-8-11.4-.8,1.4,2.1,14.8,9.8,22.3,6.5,6.3,16.5,8.3,18.2,9.4-34.8,11.6-58.6-9-77.2-36.7,6.3,53.6,47.6,102,107.7,78.4-72.8,79.8-74.5,146.4-63.1,200.6,14.6,69.7,62.1,125.7,126.8,232.7,56.5,93.5-16.6,260.7-108.1,301.7,93-130.2,52.9-227.8-31.3-310.7-57.1-56.2-155.7-87.8-192.1-175.3-73.1-176.1,44.2-369.1,193.7-468.5-275,93.8-445.6,455.8-198,671.6,55.2,51,162.8,110.8,150.7,195.9-35-115.9-169.9-151.4-248.9-230.7C371.4,451.3,536.6,114.3,768.4,0c-157.4,44.7-318.8,172.9-350.8,342.9-17-48.4-13-120.9-3.3-174.9,4.2-23.5,25.8-49.4,11.6-36.7-95.6,85.6-88.7,280.1-45.8,389.6-46.7-38.5-75.7-107.4-90.8-166.8-17.3,146.4,51.7,294.7,180.7,374-55.7-23.3-89.3-45.3-107.8-58-30.9-21.2-52.9-48.1-49.7-39.3,40.1,110.8,164.1,153.6,274.5,186.1,156,64.8,218.3,243.9-22.2,235-58.1-2.2-124.9-6.7-213.6-81.4,32.7,45.2,27.7,35.1,69.3,74.9,69.8,66.7,146.4,69.3,169.3,73-5.7,1.3-11.4,2.5-17.1,3.6-47.5,9-106.3-17.5-130.3-30.5-82.2-52.1-96.2-76.1-132.7-135.6h-164.4c48.8,64.6,111,118.6,182.4,158,4.7,3,9.6,6.2,14.7,9.5,160.6,103.2,463,123,587.3,75.5,32.8-18.1,53.1-23.8,85.1-43.5,44.5-27.2,82.4-55.2,111.4-92.3,77.6-99.4,146.7-212.2,104.4-373.9Z"/>
  <rect class="st1" x="538.5" y="774.4" width="44.4" height="44.4"/>
  <rect class="st1" x="878.8" y="747.8" width="44.4" height="44.4"/>
  <rect class="st1" x="672.1" y="1097.5" width="44.4" height="44.4"/>
  <rect class="st1" x="642" y="1018.6" width="44.4" height="44.4"/>
  <rect class="st1" x="189.4" y="417.6" width="44.4" height="44.4"/>
  <rect class="st0" x="497.4" y="1143.5" width="44.3" height="44.3"/>
  <rect class="st1" x="125.9" y="818.8" width="44.4" height="44.4"/>
  <rect class="st1" x="957.4" y="1138.2" width="44.4" height="44.4"/>
  <rect class="st1" x="550.2" y="1093.4" width="44.4" height="44.4"/>
  <rect class="st1" x="295.3" y="549.5" width="44.4" height="44.4"/>
  <rect class="st1" x="1140.6" y="1085.5" width="44.4" height="44.4"/>
  <rect class="st1" x="586.5" y="1194.2" width="44.4" height="44.4"/>
  <rect class="st1" x="957.2" y="888.9" width="44.4" height="44.4"/>
  <rect class="st1" x="876.4" y="985" width="44.4" height="44.4"/>
  <rect class="st1" x="993.6" y="1115.5" width="44.4" height="44.4"/>
  <rect class="st1" x="1039" y="1084.3" width="44.4" height="44.4"/>
  <rect class="st1" x="29.2" y="721.8" width="44.4" height="44.4"/>
  <rect class="st1" x="372.7" y="770" width="44.4" height="44.4"/>
  <rect class="st1" x="1039" y="680.2" width="44.4" height="44.4"/>
  <rect class="st1" x="1192.6" y="920.6" width="44.4" height="44.4"/>
  <rect class="st1" x="694.3" y="877.3" width="44.4" height="44.4"/>
  <path class="st1" d="M627.3,1327.5h-2.1c4.5-19.7,20.5-32.2,31.4-47.6,41.7-59,67.3-93.4,128.9-134.4,133.6-89,330.2-103.3,320.9-309.1-1.5-33.8-10.7-56.5-16.3-87-2.2-11.7,9.1-1,12.6,2.9,28.3,32.2,43.6,88.1,55,128.8,15.1,53.5-8.6,153-35.3,201.6-41.2,74.9-130,129.3-213.2,144.1-60.7,10.8-145.4,8.7-199.4,37.1-32.4,17.1-53,43.8-82.6,63.5Z"/>
  <path class="st1" d="M976.3,1006.3l46.3-62.7c27.7-48.5,47-101,51.3-157.3,5.6,22.9,3.3,49.3.4,72.6-7.6,61.6-33.7,127.2-98,147.3Z"/>
  <g>
    <path class="st1" d="M792.5,335.1c1.3,1.3-5.8,26.5-6.2,30.5-4.9,47.3,17.4,116.1,48,152.3,20.7,24.5,30.9,41.5,49.2,66.4,36.1,49.1,94.7,125.7,98.9,188.1,2.3,34.6-6,73.7-21.2,104.8,1-33.1,8.4-65.1,4.5-98.5-4.4-37.7-38.4-89.7-65.4-116.3-91.3-90.1-235.5-151.5-128.4-307,1.9-2.7,17.9-22.8,20.4-20.3Z"/>
    <path class="st1" d="M734.7,246.3c-4,15.3-3.6,34.2-1.9,49.9,1.7,16.4,7.1,28.2,6,45.6-1.4,21.9-14.3,40.2-20.6,61-13.3,44.1-12.6,91.4,5.1,134.2l-1.6.5c-1.9-.3-7.8-5.5-9.3-7.2-21.8-24.4-42.9-119.9-40.8-152.4,1.8-29.2,35.7-95.5,52.5-121s5.6-9.2,10.5-10.7Z"/>
  </g>
  <g>
    <path class="st1" d="M1253.4,650.8c-2.7.3-2.7-1.4-3.6-3.1-17.2-30-28.3-51.6-52.1-77.8-32.7-36-66.3-53.1-72.7-106.2-1.7-14.3-1.7-29.5-1.6-43.9,6.4,10.5,9.8,22.9,17.1,33,6,8.3,32.4,36.3,40.3,42.6,1.3,1,9.6,6.3,10.2,6.1,1.6-.6.2-25.2-.2-28.5-3.9-40.9-11-98.4-53.8-117.7-4.9-2.2-31.4-7.8-31.6-9.4-2-11.2,42.8-3.9,48.8-2.2,35.3,9.8,49.7,22.1,66.3,54,35.1,67.4,16.7,140.5,25.3,212.8l7,30.1.6,10.3Z"/>
    <path class="st1" d="M1087.7,362l.9,3.1c15.6,11.8,40.1,4.1,55.7,12.8,18.1,10.1,31.6,54.9,30.7,74.9-3.1-5.2-5.2-11.9-9.3-16.5-16.8-19-33.8-25.3-54.3-36.7-17.8-9.9-19-18.8-25.7-37l2-.6Z"/>
  </g>
  <path class="st1" d="M352.6,780.6c-44.8-1.2-81.1-35.6-120.8-49-5.4-1.8-9.9-3.5-15.1-3.9-3.3-.2-5.6-3.4-4.7-6.6,11.5-42.3,26.5-93.1,20.7-136.1-1.4-10.7-7-22.4-8.2-32.1-1.2-10.2,9.6,10.9,10.9,13.9,13.1,29.8,15.8,64.4,26.6,94.2,9,24.8,44,89.7,64.9,104.5,8.2,5.8,18.7,7.4,25.7,15Z"/>
  <path class="st1" d="M260.7,587.4c-1.7,1.1-2-2.6-2.2-3.4-4.9-19.3-9.8-38-15-57.1-9-32.9,2.3-61.8,23.4-87.2-4.5,15.8-9.5,31.1-10.4,47.6-1.2,21.9,7.4,38.9,8.5,59.7.3,6-1,38.3-4.3,40.4Z"/>
  <path class="st1" d="M668.1,928.8s0,0,0,0c-.6-.9-1-1.9-1.4-3.1-.4-.4-1-1-1.7-1.8-1.8-2.6-3.9-5.1-6.3-7.5-5-6.1-10.7-13.1-12.7-15.1-32.2-30.9-89.1-56.5-133.5-60.1-41-3.3-90.9,10.7-130.7-1.5-28.8-8.9-55.6-29.4-78.9-47.8,18.4,63.6,70.3,103.6,137.2,105.1-15.7,2.5-41.4,8.6-56.7,5-43.3-10.2-89.7-48.6-113.9-85.2-36.2-54.9-25.2-106.8-69.1-161.9-40.1-50.3-71.2-59.6-131.8-72.2-21.8-4.5-36.8-6-65.9-1.2l-2.9,1.5c9.8,1,12.7,2.8,18.8,4.6,55,16.3,100.7,72.4,125.7,121.6,17.9,35.1,22.7,68.6,48.5,102.5,42.7,56.1,74.2,74,132.8,114.7,19.8,13.8,9,9.5,77.9,50.8,33.2,16.8,85,41.3,160.2,41.3s108.5-36.3,108.5-73.2-1.5-11.3-4.3-16.6Z"/>
</svg>