<svg xmlns="http://www.w3.org/2000/svg" viewBox="0 0 1200 630">
  <defs>
    <linearGradient id="bg" x1="140" y1="550" x2="1050" y2="20" gradientUnits="userSpaceOnUse">
      <stop offset="0" stop-color="#fff8f1"/>
      <stop offset=".64" stop-color="#ffffff"/>
      <stop offset="1" stop-color="#f8e1cc"/>
    </linearGradient>
    <linearGradient id="mark" x1="630" y1="520" x2="1040" y2="120" gradientUnits="userSpaceOnUse">
      <stop offset=".15" stop-color="#74030b"/>
      <stop offset=".6" stop-color="#e85d04"/>
      <stop offset="1" stop-color="#f48c06"/>
    </linearGradient>
  </defs>
  <rect width="1200" height="630" fill="url(#bg)"/>
  <path d="M0 508h1200v122H0z" fill="#74030b"/>
  <circle cx="1066" cy="86" r="182" fill="#f48c06" opacity=".16"/>
  <circle cx="1002" cy="176" r="250" fill="#74030b" opacity=".08"/>
  <g transform="translate(700 78) scale(.36)">
    <path fill="#74030b" d="M295.3 927.5H125.4c-60.8-91.3-96.2-201-96.2-318.9s16.4-156.4 45.9-225.8l130.2 225.5-.2.3 1.9 3.3c4.3 114.3 35.8 221.6 88.3 315.6Z"/>
    <path fill="#74030b" d="M451.4 53.1C292.9 97 161.8 207 89.6 351.5l117.6 203.7C216 354.6 308.9 175.8 451.4 53.1Z"/>
    <path fill="url(#mark)" d="M1230.6 689c-26.5-101.3-99.6-127.7-144.9-191-68.3-95.6-21.1-223.4 94.2-184.2 44.3 22-14.3-50.9-33.7-52.6-130.8-10.1-46.5-27.6-135.5-49.9-36.6-9.2-67.7-9.6-107-14.9-13.6-1.8-14.5-4.5-19-8.1-7.2-7.2-7.7-11.8-8-11.4-.8 1.4 2.1 14.8 9.8 22.3 6.5 6.3 16.5 8.3 18.2 9.4-34.8 11.6-58.6-9-77.2-36.7 6.3 53.6 47.6 102 107.7 78.4-72.8 79.8-74.5 146.4-63.1 200.6 14.6 69.7 62.1 125.7 126.8 232.7 56.5 93.5-16.6 260.7-108.1 301.7 93-130.2 52.9-227.8-31.3-310.7-57.1-56.2-155.7-87.8-192.1-175.3-73.1-176.1 44.2-369.1 193.7-468.5-275 93.8-445.6 455.8-198 671.6 55.2 51 162.8 110.8 150.7 195.9-35-115.9-169.9-151.4-248.9-230.7C371.4 451.3 536.6 114.3 768.4 0c-157.4 44.7-318.8 172.9-350.8 342.9-17-48.4-13-120.9-3.3-174.9 4.2-23.5 25.8-49.4 11.6-36.7-95.6 85.6-88.7 280.1-45.8 389.6-46.7-38.5-75.7-107.4-90.8-166.8-17.3 146.4 51.7 294.7 180.7 374-55.7-23.3-89.3-45.3-107.8-58-30.9-21.2-52.9-48.1-49.7-39.3 40.1 110.8 164.1 153.6 274.5 186.1 156 64.8 218.3 243.9-22.2 235-58.1-2.2-124.9-6.7-213.6-81.4 32.7 45.2 27.7 35.1 69.3 74.9 69.8 66.7 146.4 69.3 169.3 73-5.7 1.3-11.4 2.5-17.1 3.6-47.5 9-106.3-17.5-130.3-30.5-82.2-52.1-96.2-76.1-132.7-135.6H145.3c48.8 64.6 111 118.6 182.4 158 4.7 3 9.6 6.2 14.7 9.5 160.6 103.2 463 123 587.3 75.5 32.8-18.1 53.1-23.8 85.1-43.5 44.5-27.2 82.4-55.2 111.4-92.3 77.6-99.4 146.7-212.2 104.4-373.9Z"/>
    <rect fill="#e85d04" x="538.5" y="774.4" width="44.4" height="44.4"/>
    <rect fill="#e85d04" x="878.8" y="747.8" width="44.4" height="44.4"/>
    <rect fill="#e85d04" x="672.1" y="1097.5" width="44.4" height="44.4"/>
    <rect fill="#e85d04" x="642" y="1018.6" width="44.4" height="44.4"/>
    <rect fill="#e85d04" x="189.4" y="417.6" width="44.4" height="44.4"/>
  </g>
  <text x="76" y="235" fill="#250f0f" font-family="Arial, Helvetica, sans-serif" font-size="92" font-weight="700">RAGS Lab</text>
  <text x="80" y="318" fill="#6e2c19" font-family="Arial, Helvetica, sans-serif" font-size="36" font-weight="500">Resilient AI and Grounded Sensing</text>
  <text x="80" y="562" fill="#fff8f1" font-family="Arial, Helvetica, sans-serif" font-size="30" font-weight="600">AI and sensing systems for chaotic environments</text>
</svg>
