<svg xmlns="http://www.w3.org/2000/svg" viewBox="0 0 64 64">
  <defs>
    <linearGradient id="rags-favicon-gradient" x1="14" y1="52" x2="52" y2="10" gradientUnits="userSpaceOnUse">
      <stop offset="0" stop-color="#74030b"/>
      <stop offset=".55" stop-color="#e85d04"/>
      <stop offset="1" stop-color="#f48c06"/>
    </linearGradient>
  </defs>
  <path fill="#74030b" d="M15.7 45.2h-8A28.4 28.4 0 0 1 5.4 34a28.9 28.9 0 0 1 2.1-11.3l6.1 10.6c.2 4.3.9 8.3 2.1 11.9Z"/>
  <path fill="#74030b" d="M23.2 4.7A29.1 29.1 0 0 0 8.2 20.9l5.6 9.7c.5-10.8 4-20 9.4-25.9Z"/>
  <path fill="url(#rags-favicon-gradient)" d="M58.6 31.2c-1.2-4.8-4.7-6.1-6.8-9.1-3.2-4.5-1-10.6 4.4-8.7 2.1 1-1.6-2.5-2.6-2.6-6.1-.5-2.2-1.3-6.4-2.4-1.7-.4-3.2-.5-5-.7-.8-.1-1-.2-1.2-.4-.4-.3-.5-.7-.5-.5-.1.4.5 1.5 1.4 1.7-1.7.6-2.8-.4-3.7-1.7.3 2.5 2.2 4.8 5.1 3.7-3.5 3.8-3.5 7-3 9.5.7 3.3 2.9 6 6 11 2.7 4.5-.8 12.4-5.1 14.3 4.4-6.2 2.5-10.8-1.5-14.7-2.7-2.7-7.4-4.2-9.1-8.3-3.5-8.4 2.1-17.5 9.2-22.3C22.7 4.5 14.6 21.6 26.3 31.8c2.6 2.4 7.7 5.2 7.1 9.3-1.7-5.5-8-7.2-11.8-10.9-8.2-7.8-5.7-20 3.5-28.1-7.5 3.8-14.1 11.3-14.9 19.4-1.6-2.4-1.4-5.8-.8-8.4-4.5 4.1-4.2 13.3-2.2 18.5-2.2-1.8-3.6-5.1-4.3-7.9-.8 7 2.5 14 8.6 17.8-2.6-1.1-4.2-2.1-5.1-2.7 1.9 5.2 7.8 7.3 13 8.8 7.4 3.1 10.3 11.6-1.1 11.2-2.8-.1-5.9-.3-10.1-3.9 1.6 2.1 3.3 4.1 5.4 5.4 7.6 4.9 21.9 5.8 27.8 3.6 1.6-.9 2.5-1.1 4-2.1 2.1-1.3 3.9-2.6 5.3-4.4 3.7-4.7 7-10.1 5-17.8Z"/>
  <rect x="26.9" y="36.7" width="2.1" height="2.1" fill="#e85d04"/>
  <rect x="42.9" y="35.5" width="2.1" height="2.1" fill="#e85d04"/>
  <rect x="32.9" y="51.9" width="2.1" height="2.1" fill="#e85d04"/>
  <rect x="30.4" y="48.2" width="2.1" height="2.1" fill="#e85d04"/>
  <rect x="9.1" y="19.8" width="2.1" height="2.1" fill="#e85d04"/>
  <rect x="24.4" y="54.1" width="2.1" height="2.1" fill="#74030b"/>
  <rect x="5.7" y="38.8" width="2.1" height="2.1" fill="#e85d04"/>
  <rect x="47.3" y="53.9" width="2.1" height="2.1" fill="#e85d04"/>
  <rect x="14.4" y="26" width="2.1" height="2.1" fill="#e85d04"/>
  <rect x="55.8" y="51.5" width="2.1" height="2.1" fill="#e85d04"/>
</svg>
